<svg width="99" height="36" viewBox="0 0 99 36" fill="none" xmlns="http://www.w3.org/2000/svg">
<path fill-rule="evenodd" clip-rule="evenodd" d="M32.6243 8.61923C31.1107 6.09358 29.0161 3.98488 26.523 2.47689C23.8171 0.854973 20.7374 0 17.6011 0C14.4647 0 11.385 0.854973 8.67908 2.47689C6.17778 3.98064 4.07601 6.08991 2.55859 8.61923C3.9114 9.09849 5.14387 9.87777 6.16774 10.9013C7.19161 11.9247 7.98156 13.1671 8.48102 14.5394C9.17206 12.6407 10.4142 11.0036 12.041 9.84768C13.6677 8.69172 15.6011 8.07218 17.5819 8.07218C19.5627 8.07218 21.4961 8.69172 23.1228 9.84768C24.7495 11.0036 25.9917 12.6407 26.6827 14.5394C27.1834 13.1646 27.9761 11.9205 29.0035 10.8968C30.0309 9.8731 31.2676 9.09521 32.6243 8.61923V8.61923Z" fill="#B1B3B3"/>
<path fill-rule="evenodd" clip-rule="evenodd" d="M26.0951 22.8069C25.0547 24.7355 23.4166 26.2554 21.4388 27.1272C19.461 27.999 17.2558 28.1731 15.1706 27.6222C13.0854 27.0712 11.2386 25.8265 9.92113 24.084C8.60363 22.3415 7.89027 20.2003 7.89339 17.9975C7.89213 16.1528 7.31781 14.3561 6.25332 12.8669C5.18884 11.3776 3.68924 10.2728 1.97096 9.71191C0.581929 12.4563 -0.0932561 15.5201 0.0103581 18.6086C0.113972 21.6971 0.9929 24.7063 2.56259 27.3469C4.13228 29.9874 6.33992 32.1704 8.97314 33.6858C11.6064 35.2012 14.5766 35.9981 17.598 35.9998C18.7344 36.0046 19.86 35.7757 20.9082 35.3267C21.9563 34.8776 22.9055 34.2177 23.6993 33.386C25.2478 31.7692 26.109 29.592 26.0951 27.3287V22.8069Z" fill="#003D64"/>
<path fill-rule="evenodd" clip-rule="evenodd" d="M35.1257 18.061C35.128 15.177 34.4509 12.335 33.1516 9.77539C31.4364 10.3353 29.9391 11.4371 28.8749 12.9224C27.8107 14.4077 27.2345 16.2 27.2292 18.0414V27.3725C27.2339 28.783 26.9432 30.1782 26.3768 31.4642C25.8104 32.7502 24.9813 33.8973 23.9453 34.8283C27.2398 33.5052 30.0684 31.1981 32.0626 28.2074C34.0568 25.2167 35.1242 21.681 35.1257 18.061V18.061Z" fill="#EA0000"/>
<path fill-rule="evenodd" clip-rule="evenodd" d="M50.2433 28.0016C52.2013 28.0951 54.1328 27.5103 55.7256 26.3418C56.4081 25.8287 56.9588 25.154 57.3305 24.3755C57.7022 23.597 57.8837 22.7379 57.8597 21.872C57.9003 21.1611 57.7848 20.45 57.5216 19.7907C57.2585 19.1315 56.8544 18.5409 56.339 18.0622C55.0981 17.0307 53.6689 16.262 52.1346 15.8011C51.3615 15.5528 50.1347 15.226 49.5788 15.0365L48.729 14.7359C48.1667 14.4876 47.9558 14.2197 47.9558 13.8668C47.9558 13.0173 48.7801 12.6121 50.4094 12.6121C51.5285 12.6264 52.6394 12.8092 53.7065 13.1545C54.7434 13.4585 55.7377 13.8977 56.6648 14.4615V9.74987C54.7222 8.69314 52.5522 8.14954 50.3519 8.16845C45.8792 8.16845 43.0295 10.2138 43.0295 13.8929C43.0264 14.8655 43.2452 15.8254 43.6684 16.6964C44.172 17.3792 44.7857 17.9692 45.4831 18.4412C45.8722 18.6771 46.2805 18.8782 46.7035 19.0424L47.9303 19.5325L49.2913 19.9377L50.9653 20.4539C51.3847 20.5636 51.7885 20.7283 52.1666 20.944C52.5947 21.2446 52.8822 21.4929 52.8822 22.0615C52.8822 23.0678 51.9238 23.5645 50.0324 23.5645C48.7202 23.5449 47.422 23.286 46.1987 22.7999C45.0256 22.4002 43.9403 21.7698 43.0039 20.944V25.9562C45.1529 27.3857 47.6816 28.1002 50.2433 28.0016V28.0016Z" fill="#003D64"/>
<path fill-rule="evenodd" clip-rule="evenodd" d="M92.3408 27.6232C94.0668 27.7195 95.7713 27.1947 97.1585 26.1398C97.7492 25.6723 98.2237 25.0688 98.5435 24.3784C98.8632 23.6881 99.0192 22.9303 98.9987 22.1666C99.0419 20.935 98.6546 19.7279 97.9061 18.762C97.2932 17.9418 96.4294 17.3551 95.4525 17.0956C96.1264 16.7581 96.6909 16.2291 97.0784 15.572C97.466 14.9149 97.6602 14.1574 97.6377 13.3904C97.6377 10.2602 95.2416 8.57422 91.8296 8.57422H82.75V27.6232H92.3408ZM87.5422 19.4808H91.4079C92.82 19.4808 93.7529 20.2454 93.7529 21.5262C93.7529 22.8071 92.8711 23.5259 91.4079 23.5259H87.5422V19.4808ZM87.5422 12.5343H91.114C92.2832 12.5343 93.0308 13.1878 93.0308 14.2268C93.0308 15.2659 92.2832 15.8605 91.114 15.8605H87.5422V12.5343Z" fill="#003D64"/>
<path fill-rule="evenodd" clip-rule="evenodd" d="M75.8871 32.5508C76.9217 32.549 77.9445 32.3264 78.8902 31.8973V27.8327C78.2086 28.2207 77.4402 28.4211 76.6602 28.4143C76.1738 28.433 75.6897 28.3359 75.2462 28.1306C74.8026 27.9253 74.4118 27.6175 74.1044 27.2315C75.8045 26.4633 77.2418 25.1937 78.2321 23.585C79.2501 21.9693 79.7811 20.0831 79.7592 18.1611C79.7058 16.1771 79.0888 14.252 77.9834 12.6207C76.8781 10.9893 75.3322 9.72248 73.5346 8.97475C71.7369 8.22701 69.7653 8.03076 67.8604 8.40995C65.9555 8.78913 64.1998 9.72736 62.8076 11.1101C61.8941 12.0333 61.1733 13.1366 60.6889 14.3531C60.2046 15.5696 59.9667 16.874 59.9898 18.1873C59.9549 20.6979 60.8633 23.1264 62.5277 24.9721C64.1922 26.8179 66.4856 27.94 68.9352 28.1071C71.5358 31.3745 73.6252 32.5769 75.8807 32.5769L75.8871 32.5508ZM66.3411 22.0494C65.8679 21.5218 65.5013 20.9038 65.2623 20.231C65.0232 19.5581 64.9165 18.8436 64.9481 18.1285C64.8863 16.6844 65.3873 15.2743 66.3411 14.2076C66.7915 13.7103 67.3399 13.3164 67.95 13.0517C68.5602 12.787 69.2183 12.6575 69.8809 12.6719C70.5398 12.6575 71.1941 12.787 71.8001 13.0518C72.4061 13.3167 72.9499 13.7107 73.3952 14.2076C74.354 15.2728 74.8636 16.6815 74.8136 18.1285C74.8657 19.5757 74.3558 20.9853 73.3952 22.0494C72.9507 22.5473 72.407 22.942 71.8008 23.2069C71.1946 23.4718 70.5399 23.6007 69.8809 23.585C69.2181 23.6007 68.5596 23.4718 67.9493 23.207C67.339 22.9422 66.7907 22.5476 66.3411 22.0494V22.0494Z" fill="#003D64"/>
</svg>
